<?xml version="1.0" standalone="no"?>
<!DOCTYPE svg PUBLIC "-//W3C//DTD SVG 20010904//EN"
 "http://www.w3.org/TR/2001/REC-SVG-20010904/DTD/svg10.dtd">
<svg version="1.0" xmlns="http://www.w3.org/2000/svg"
 width="807.000000pt" height="807.000000pt" viewBox="0 0 807.000000 807.000000"
 preserveAspectRatio="xMidYMid meet">
<metadata>
Created by potrace 1.11, written by Peter Selinger 2001-2013
</metadata>
<g transform="translate(0.000000,807.000000) scale(0.100000,-0.100000)"
fill="#000000" stroke="none">
<path d="M575 7110 c-62 -24 -149 -99 -176 -152 -11 -21 -65 -206 -120 -411
-105 -393 -180 -671 -235 -877 -52 -191 -47 -225 48 -322 87 -90 -46 -81 1346
-82 677 0 1232 -2 1232 -5 0 -3 -20 -80 -44 -171 -85 -316 -268 -997 -357
-1330 -50 -184 -99 -366 -109 -405 -22 -83 -278 -1039 -396 -1480 -186 -689
-189 -707 -160 -763 21 -39 126 -139 161 -152 37 -14 1764 -15 1812 -1 46 13
133 74 166 116 39 49 48 74 101 275 26 96 54 198 62 225 13 45 127 469 174
650 42 160 121 455 142 526 l21 77 1183 0 c923 0 1191 3 1221 12 77 26 159 94
194 161 16 33 133 451 259 929 20 80 58 222 84 317 51 190 53 206 31 261 -18
43 -120 147 -160 162 -17 6 -441 10 -1171 10 -629 0 -1144 2 -1144 5 0 3 124
463 149 555 l7 25 1280 1 1279 1 56 26 c64 31 131 93 159 146 10 21 30 80 44
132 13 52 56 211 95 354 195 725 251 942 251 968 0 48 -28 98 -89 158 -38 37
-73 61 -97 68 -28 8 -1111 11 -3644 10 -3533 0 -3606 0 -3655 -19z"/>
</g>
</svg>
